<?xml version="1.0" encoding="UTF-8" standalone="no"?>
<svg
   xmlns:dc="http://purl.org/dc/elements/1.1/"
   xmlns:cc="http://creativecommons.org/ns#"
   xmlns:rdf="http://www.w3.org/1999/02/22-rdf-syntax-ns#"
   xmlns:svg="http://www.w3.org/2000/svg"
   xmlns="http://www.w3.org/2000/svg"
   xmlns:sodipodi="http://sodipodi.sourceforge.net/DTD/sodipodi-0.dtd"
   xmlns:inkscape="http://www.inkscape.org/namespaces/inkscape"
   viewBox="0 0 730 216"
   version="1.1"
   id="svg24"
   sodipodi:docname="RunDry.svg"
   inkscape:version="0.92.4 (5da689c313, 2019-01-14)">
  <metadata
     id="metadata30">
    <rdf:RDF>
      <cc:Work
         rdf:about="">
        <dc:format>image/svg+xml</dc:format>
        <dc:type
           rdf:resource="http://purl.org/dc/dcmitype/StillImage" />
      </cc:Work>
    </rdf:RDF>
  </metadata>
  <defs
     id="defs28" />
  <sodipodi:namedview
     pagecolor="#ffffff"
     bordercolor="#666666"
     borderopacity="1"
     objecttolerance="10"
     gridtolerance="10"
     guidetolerance="10"
     inkscape:pageopacity="0"
     inkscape:pageshadow="2"
     inkscape:window-width="2160"
     inkscape:window-height="1346"
     id="namedview26"
     showgrid="false"
     inkscape:zoom="0.97534247"
     inkscape:cx="365"
     inkscape:cy="108"
     inkscape:window-x="-11"
     inkscape:window-y="-11"
     inkscape:window-maximized="1"
     inkscape:current-layer="svg24" />
  <g
     id="g43"
     transform="matrix(0.57685223,0,0,0.57685223,-0.04615138,-0.04615252)">
    <path
       id="path2"
       d="M 0.08000555,259.17798 59.264112,142.20987 0.08000555,47.763314 Z"
       style="fill:#0d5987;fill-opacity:1;fill-rule:evenodd;stroke:none"
       inkscape:connector-curvature="0" />
    <path
       id="path4"
       d="M 26.961871,374.52599 173.49204,239.77664 79.825539,280.15944 Z"
       style="fill:#3388bb;fill-opacity:1;fill-rule:evenodd;stroke:none"
       inkscape:connector-curvature="0" />
    <path
       id="path6"
       d="M 142.34988,0.08000555 1.3600944,272.77893 93.10646,226.2957 172.47197,130.32904 Z"
       style="fill:#3388bb;fill-opacity:1;fill-rule:evenodd;stroke:none"
       inkscape:connector-curvature="0" />
    <path
       id="path8"
       d="M 93.046456,226.3357 1.3600944,272.71892 79.765535,280.05943 173.41203,239.77664 Z"
       style="fill:#0d5987;fill-opacity:1;fill-rule:evenodd;stroke:none"
       inkscape:connector-curvature="0" />
    <path
       id="path10"
       d="M 141.54982,1.0400722 0.56003886,273.57898 92.306405,227.11576 171.67191,131.22911 Z"
       style="fill:#3388bb;fill-opacity:1;fill-rule:evenodd;stroke:none"
       inkscape:connector-curvature="0" />
    <path
       id="path12"
       d="m 248.41724,96.246678 h 83.6058 c 8.7206,0 16.76116,1.840128 24.16167,5.500382 7.42052,3.66025 13.82096,8.44059 19.20134,14.361 5.40037,5.92041 9.64067,12.62087 12.68088,20.12139 3.04021,7.48052 4.58031,15.06105 4.58031,22.72158 0,5.7404 -0.70004,11.26078 -2.10014,16.58115 -1.4001,5.30037 -3.40024,10.32072 -6.00042,15.02104 -2.62018,4.70033 -5.8004,8.92062 -9.54066,12.66088 -3.74026,3.74026 -7.96055,6.92048 -12.68088,9.54066 l 42.58296,68.94479 H 356.58474 L 319.22215,221.8954 h -27.94194 v 59.80415 h -42.86297 z m 42.86297,37.622612 v 50.66351 h 39.18272 c 5.04035,0 9.40065,-2.38016 13.06091,-7.18049 3.66025,-4.78034 5.48038,-10.92076 5.48038,-18.40128 0,-7.66053 -2.08015,-13.76096 -6.26044,-18.28127 -4.18029,-4.54031 -8.7206,-6.80047 -13.58094,-6.80047 z"
       style="fill:#3388bb;fill-opacity:1;fill-rule:evenodd;stroke:none"
       inkscape:connector-curvature="0" />
    <path
       id="path14"
       d="m 751.49214,96.246678 h 69.28481 c 15.32106,0 28.72199,2.44017 40.24279,7.320512 11.4808,4.88033 21.12147,11.5208 28.88201,19.88138 7.76054,8.32057 13.56094,18.12125 17.48121,29.36203 3.92027,11.24078 5.88041,23.20161 5.88041,35.9225 0,14.12098 -2.16015,26.84186 -6.52045,38.28265 -4.36031,11.40079 -10.56074,21.12147 -18.6813,29.24203 -8.12056,8.08056 -17.84124,14.361 -29.28203,18.80131 -11.40079,4.4403 -24.08167,6.64046 -38.00264,6.64046 h -69.28481 z m 42.88298,37.642612 v 110.20765 h 26.40183 c 7.84055,0 14.80103,-1.4001 20.88145,-4.16029 6.12043,-2.8002 11.20078,-6.68046 15.32106,-11.64081 4.08029,-4.96034 7.2005,-10.80075 9.40066,-17.48121 2.16015,-6.72047 3.24022,-14.08098 3.24022,-22.08153 0,-8.20057 -1.08007,-15.64109 -3.24022,-22.32155 -2.20016,-6.72047 -5.36038,-12.52087 -9.56067,-17.40121 -4.16029,-4.84034 -9.32064,-8.6006 -15.40107,-11.20078 -6.12042,-2.64018 -13.0009,-3.92027 -20.64143,-3.92027 z"
       style="fill:#3388bb;fill-opacity:1;fill-rule:evenodd;stroke:none"
       inkscape:connector-curvature="0" />
    <path
       id="path16"
       d="m 709.48923,208.77449 v 6.24043 0 z m -30.56212,-66.76464 c 8.88062,0 16.08112,1.64012 21.5615,4.84034 5.48038,3.24022 9.72067,7.40051 12.68088,12.56087 2.9602,5.12036 4.92034,10.72075 5.8804,16.84117 0.92007,6.08042 1.4001,12.00083 1.4001,17.72123 v 87.72609 h -41.8029 V 204.6942 c 0,-9.04062 -1.68012,-15.64108 -5.08035,-19.72137 -3.40024,-4.08028 -7.88055,-6.12042 -13.48094,-6.12042 -2.9602,0 -5.96041,0.60004 -9.00062,1.80013 -3.04021,1.24008 -5.92041,2.9202 -8.6006,5.12035 -2.72019,2.16015 -5.20036,4.72033 -7.48052,7.68053 -2.24015,2.96021 -4.00028,6.20043 -5.20036,9.68068 v 78.56545 H 587.9608 V 144.65004 h 37.64261 v 22.96159 c 5.04035,-8.16057 12.20085,-14.481 21.44149,-18.92131 9.24064,-4.44031 19.84137,-6.68047 31.88221,-6.68047 z"
       style="fill:#3388bb;fill-opacity:1;fill-rule:evenodd;stroke:none"
       inkscape:connector-curvature="0" />
    <path
       id="path18"
       d="m 1015.5505,142.48989 c 3.4802,0 5.6804,0.12001 6.5204,0.28002 v 37.60261 c -10.0807,0.20001 -19.2013,1.84012 -27.28187,4.96034 -8.12057,3.16022 -14.08098,7.84054 -17.92125,14.12098 v 82.24571 h -41.8429 V 144.61003 h 38.44267 v 27.68192 c 4.88034,-9.24064 11.04076,-16.40113 18.44128,-21.56149 7.40051,-5.12036 15.28107,-7.88055 23.64167,-8.24057 z"
       style="fill:#3388bb;fill-opacity:1;fill-rule:evenodd;stroke:none"
       inkscape:connector-curvature="0" />
    <path
       id="path20"
       d="m 421.86927,144.57003 h 41.8029 v 78.60546 c 0,8.36058 1.64012,14.74102 4.96035,19.18133 3.30023,4.4403 8.00055,6.66046 14.10098,6.66046 5.56038,0 10.96076,-1.4801 16.18112,-4.44031 5.22036,-2.9602 9.84068,-8.08056 13.84096,-15.40107 v -84.60587 h 41.7829 v 90.08625 c 0,4.18029 0.78005,7.10049 2.36016,8.74061 1.56011,1.66011 4.3403,2.66018 8.34058,3.02021 v 35.24244 c -4.3403,0.86006 -8.12056,1.4401 -11.34079,1.70012 -3.24022,0.26002 -6.06042,0.38003 -8.50059,0.38003 -14.62101,-0.16001 -23.0616,-6.00042 -25.32175,-17.48121 l -0.78006,-8.36059 c -6.28043,9.06063 -14.06097,15.70109 -23.38162,19.98139 -9.32065,4.2603 -19.72137,6.38044 -31.20216,6.38044 -13.94097,0 -24.56171,-4.3803 -31.86222,-13.18091 -7.3205,-8.78061 -10.98076,-21.70151 -10.98076,-38.76269 z"
       style="fill:#3388bb;fill-opacity:1;fill-rule:evenodd;stroke:none"
       inkscape:connector-curvature="0" />
    <path
       id="path22"
       d="m 1025.1111,144.57003 h 42.883 l 32.1622,101.36704 27.4819,-101.36704 h 38.9227 l -52.5236,159.33106 c -3.8403,11.5208 -10.3207,20.68143 -19.4814,27.56191 -9.1606,6.88048 -19.7613,10.40072 -31.7622,10.56073 -3.8402,0 -7.6805,-0.28002 -11.5208,-0.88006 -3.8402,-0.64004 -7.6805,-1.64011 -11.5208,-3.00021 v -35.80248 c 3.8403,1.24008 7.4006,2.08014 10.6008,2.60018 3.2402,0.52004 6.0804,0.80005 8.5206,0.80005 4.5203,0 8.2405,-1.80012 11.0807,-5.36037 2.8802,-3.56024 5.2804,-9.80068 7.2005,-18.68129 z"
       style="fill:#3388bb;fill-opacity:1;fill-rule:evenodd;stroke:none"
       inkscape:connector-curvature="0" />
  </g>
</svg>
